<svg width="22" height="20" viewBox="0 0 22 20" fill="none" xmlns="http://www.w3.org/2000/svg">
<path d="M6.78872 4.70108C7.17591 4.55394 7.37052 4.12077 7.22338 3.73358C7.07624 3.34638 6.64307 3.15177 6.25587 3.29891C5.68513 3.5158 5.13332 3.86843 4.6171 4.38024C3.96276 5.02899 3.52682 5.76567 3.28319 6.55572C3.16113 6.95154 3.38306 7.37136 3.77888 7.49342C4.1747 7.61548 4.59453 7.39355 4.71659 6.99773C4.88655 6.44657 5.19145 5.92307 5.6732 5.44544C6.05148 5.07039 6.42801 4.83815 6.78872 4.70108Z" fill="white"/>
<path fill-rule="evenodd" clip-rule="evenodd" d="M19.8469 1.9356C18.5193 0.581763 17.0414 0.162939 15.6535 0.264543C14.3031 0.363399 13.087 0.949169 12.1988 1.5126C11.4984 1.95692 10.5014 1.95692 9.80092 1.5126C8.91271 0.949176 7.69661 0.363413 6.34625 0.264558C4.95836 0.162957 3.48047 0.581778 2.15291 1.9356C0.585635 3.53389 0.0939181 5.50692 0.291372 7.50268C0.48655 9.47545 1.35188 11.4809 2.50599 13.2579C3.66318 15.0396 5.14138 16.6393 6.62434 17.8008C8.07469 18.9368 9.65272 19.75 10.9999 19.75C12.3471 19.75 13.9251 18.9368 15.3755 17.8008C16.8584 16.6393 18.3366 15.0396 19.4938 13.2579C20.6479 11.4809 21.5132 9.47544 21.7084 7.50268C21.9059 5.50691 21.4141 3.53389 19.8469 1.9356ZM13.0023 2.77925C13.7878 2.281 14.76 1.83397 15.763 1.76054C16.7285 1.68986 17.7692 1.95926 18.7759 2.98582C19.9791 4.21285 20.3775 5.7199 20.2157 7.355C20.0516 9.0131 19.3084 10.7893 18.2358 12.4408C17.1663 14.0876 15.7996 15.5633 14.4505 16.6199C13.0689 17.7021 11.8278 18.25 10.9999 18.25C10.172 18.25 8.93095 17.7021 7.54928 16.6199C6.20023 15.5633 4.83349 14.0876 3.76396 12.4408C2.69134 10.7893 1.94813 9.0131 1.78408 7.355C1.62231 5.7199 2.02068 4.21286 3.22391 2.98582C4.23054 1.95928 5.27121 1.68987 6.23674 1.76056C7.2398 1.83398 8.21199 2.28101 8.99743 2.77925C10.1884 3.5347 11.8114 3.5347 13.0023 2.77925Z" fill="white"/>
</svg>
