<svg width="21" height="19" viewBox="0 0 21 19" fill="none" xmlns="http://www.w3.org/2000/svg">
<path fill-rule="evenodd" clip-rule="evenodd" d="M12.2941 1.86849C13.8562 0.823996 16.3789 -0.163694 18.5575 2.17818C23.7291 7.7374 14.8603 18.4498 10.8001 18.4498C6.74001 18.4498 -2.12886 7.7374 3.04276 2.17818C5.22133 -0.163668 7.74406 0.824008 9.30613 1.86849C10.1888 2.45867 11.4115 2.45867 12.2941 1.86849ZM6.8697 4.3823C7.23108 4.23754 7.41271 3.81138 7.27538 3.43045C7.13805 3.04952 6.73376 2.85806 6.37238 3.00282C5.83968 3.2162 5.32466 3.56312 4.84286 4.06665C4.23214 4.7049 3.82526 5.42967 3.59788 6.20693C3.48396 6.59634 3.69109 7.00937 4.06052 7.12946C4.42995 7.24954 4.82179 7.03121 4.93571 6.64179C5.09434 6.09955 5.37892 5.58452 5.82855 5.11461C6.18161 4.74563 6.53304 4.51715 6.8697 4.3823Z" fill="#EB4782" stroke="white" stroke-linecap="round"/>
</svg>
