<svg width="22" height="23" viewBox="0 0 22 23" fill="none" xmlns="http://www.w3.org/2000/svg">
<path d="M20.4069 0.996654C20.405 0.582445 20.0677 0.24816 19.6535 0.250008C19.2393 0.251856 18.905 0.589137 18.9069 1.00335L18.9157 2.98906C18.9192 3.75756 18.9205 4.28651 18.8822 4.69009C18.4451 4.21896 17.9662 3.78711 17.4515 3.40038C15.6546 2.05032 13.4197 1.25 11 1.25C5.06294 1.25 0.25 6.06294 0.25 12C0.25 17.9371 5.06294 22.75 11 22.75C16.9371 22.75 21.75 17.9371 21.75 12C21.75 11.5858 21.4142 11.25 21 11.25C20.5858 11.25 20.25 11.5858 20.25 12C20.25 17.1086 16.1086 21.25 11 21.25C5.89137 21.25 1.75 17.1086 1.75 12C1.75 6.89137 5.89137 2.75 11 2.75C13.0836 2.75 15.0044 3.43804 16.5505 4.59962C17.0457 4.97173 17.5025 5.39242 17.9136 5.85457C17.8646 5.86231 17.8114 5.86938 17.7535 5.8757C17.3422 5.92062 16.7985 5.91933 15.9891 5.91572L14.0034 5.90686C13.5891 5.90501 13.2519 6.2393 13.25 6.65351C13.2482 7.06772 13.5824 7.405 13.9967 7.40685L16.0257 7.4159C16.7806 7.41929 17.4102 7.42211 17.9164 7.36684C18.4473 7.30886 18.9366 7.17926 19.3617 6.85029C19.4531 6.77952 19.5399 6.7031 19.6215 6.6215C19.7031 6.5399 19.7795 6.45314 19.8503 6.36169C20.1793 5.93661 20.3089 5.44728 20.3668 4.91635C20.4221 4.41017 20.4193 3.7806 20.4159 3.02573L20.4069 0.996654Z" fill="white"/>
</svg>
